<?xml version="1.0" standalone="no"?>
<!DOCTYPE svg PUBLIC "-//W3C//DTD SVG 20010904//EN"
 "http://www.w3.org/TR/2001/REC-SVG-20010904/DTD/svg10.dtd">
<svg version="1.0" xmlns="http://www.w3.org/2000/svg"
 width="500.000000pt" height="500.000000pt" viewBox="0 0 500.000000 500.000000"
 preserveAspectRatio="xMidYMid meet">

<g transform="translate(0.000000,500.000000) scale(0.100000,-0.100000)"
fill="#000000" stroke="none">
<path d="M2913 4142 c-3 -9 -18 -46 -33 -82 -16 -36 -38 -94 -50 -130 -21 -61
-22 -67 -7 -102 20 -47 86 -90 147 -96 78 -7 112 34 195 241 15 38 25 70 23
72 -1 2 -12 5 -22 7 -16 2 -26 -13 -58 -87 -77 -181 -89 -195 -162 -181 -36 7
-86 55 -86 82 0 8 23 69 50 136 28 67 50 127 50 134 0 20 -40 25 -47 6z"/>
<path d="M2307 4073 c-9 -32 -19 -76 -23 -98 -12 -71 -18 -68 -69 36 -38 78
-53 99 -67 97 -10 -2 -19 -6 -19 -11 0 -4 26 -62 58 -128 52 -108 60 -120 82
-117 21 3 27 14 52 99 15 54 30 115 34 138 6 36 5 41 -13 41 -15 0 -23 -12
-35 -57z"/>
<path d="M1924 4051 c-17 -10 -36 -33 -44 -50 -25 -60 9 -170 61 -196 33 -18
92 -19 122 -4 56 29 90 109 47 109 -13 0 -22 -9 -26 -25 -14 -56 -87 -73 -129
-30 -14 13 -25 28 -25 33 0 4 42 21 93 36 50 16 93 30 95 31 9 8 -29 75 -53
93 -35 28 -99 29 -141 3z m118 -38 c10 -9 18 -21 18 -27 0 -10 -115 -46 -144
-46 -12 0 3 52 21 73 20 22 80 22 105 0z"/>
<path d="M1610 4027 c-34 -18 -144 -80 -149 -83 -2 -2 13 -31 33 -64 20 -34
36 -64 36 -66 0 -8 111 -194 115 -194 12 0 135 73 164 98 31 26 35 35 39 90 4
50 0 70 -18 104 -55 108 -145 154 -220 115z m121 -64 c57 -49 84 -139 58 -197
-9 -19 -67 -60 -120 -84 -11 -5 -141 237 -134 248 12 19 100 59 132 60 20 0
43 -10 64 -27z"/>
<path d="M3223 3864 c-37 -58 -80 -124 -95 -147 -32 -48 -34 -62 -12 -71 22
-8 26 -5 69 66 21 35 65 103 98 152 45 68 55 91 45 97 -26 17 -37 7 -105 -97z"/>
<path d="M2550 3876 c0 -22 16 -36 41 -36 5 0 9 14 9 30 0 25 -4 30 -25 30
-20 0 -25 -5 -25 -24z"/>
<path d="M1235 3720 c-5 -16 0 -29 19 -49 20 -21 23 -30 14 -39 -9 -9 -9 -15
0 -24 10 -10 15 -10 22 2 8 12 25 0 87 -62 43 -43 86 -78 96 -78 23 0 70 47
61 61 -4 7 -20 8 -41 4 -32 -6 -38 -2 -95 54 -50 51 -58 64 -48 76 7 8 9 22 6
31 -6 15 -8 15 -27 -2 -20 -18 -21 -18 -37 2 -9 11 -24 26 -34 32 -14 11 -17
10 -23 -8z"/>
<path d="M3548 3710 c-25 -15 -66 -39 -90 -53 -23 -13 -80 -47 -126 -74 -68
-42 -80 -52 -68 -62 12 -10 29 -4 88 32 40 24 117 70 171 101 81 48 96 60 86
72 -6 8 -12 14 -13 13 0 0 -22 -13 -48 -29z"/>
<path d="M1142 3660 c-29 -38 -28 -62 4 -99 20 -24 24 -35 15 -45 -8 -10 -8
-16 3 -25 10 -9 16 -8 25 3 11 13 19 10 56 -17 23 -18 65 -51 92 -74 38 -32
53 -39 61 -31 19 19 13 31 -36 71 -26 21 -65 53 -87 72 -39 33 -39 34 -21 54
17 19 17 21 2 27 -10 4 -25 -1 -35 -10 -16 -15 -19 -15 -34 2 -20 22 -22 43
-6 59 12 12 6 43 -9 43 -4 0 -18 -13 -30 -30z"/>
<path d="M3690 3486 c-47 -29 -100 -62 -119 -73 -72 -45 -89 -111 -48 -191 41
-83 111 -103 202 -56 97 49 195 110 195 122 0 4 -5 14 -10 22 -8 13 -13 13
-31 2 -12 -8 -36 -22 -53 -32 -17 -9 -54 -31 -81 -49 -66 -41 -106 -52 -135
-37 -36 18 -64 63 -64 102 0 43 8 50 152 136 56 33 102 64 102 68 0 3 -6 13
-12 22 -12 15 -22 11 -98 -36z"/>
<path d="M1099 3413 c-63 -39 -79 -128 -33 -183 32 -37 93 -70 131 -70 61 0
123 68 123 135 0 94 -140 169 -221 118z m117 -44 c67 -41 83 -98 39 -139 -20
-18 -32 -22 -64 -17 -93 12 -141 98 -86 152 30 31 67 32 111 4z"/>
<path d="M878 3184 c-54 -29 -88 -130 -64 -187 17 -41 41 -57 89 -57 40 0 68
25 122 106 41 61 65 73 102 49 23 -15 25 -22 21 -67 -6 -59 -47 -108 -94 -111
-22 -2 -30 -8 -32 -25 -3 -19 1 -22 30 -22 53 0 96 33 125 96 29 64 27 106 -7
154 -25 36 -76 48 -116 28 -15 -7 -49 -44 -76 -83 -56 -82 -79 -96 -108 -70
-45 41 -5 147 58 153 26 3 32 8 32 28 0 20 -5 24 -27 24 -16 -1 -40 -8 -55
-16z"/>
<path d="M3910 3108 c-30 -38 -58 -75 -62 -81 -7 -12 -54 -1 -161 40 -37 15
-69 24 -72 22 -2 -3 -2 -15 1 -26 5 -17 27 -29 99 -55 l93 -33 -29 -35 c-64
-76 -88 -117 -82 -139 3 -11 9 -21 13 -21 4 0 36 37 70 83 35 45 66 85 70 90
3 4 51 -9 105 -28 54 -20 99 -34 101 -32 2 1 1 13 -2 24 -5 17 -25 28 -85 48
-43 15 -79 30 -79 34 0 4 22 36 49 70 45 58 55 91 32 105 -3 2 -31 -27 -61
-66z"/>
<path d="M1056 2654 c-9 -22 1 -34 30 -34 19 0 24 5 24 25 0 20 -5 25 -24 25
-13 0 -27 -7 -30 -16z"/>
<path d="M3717 2565 c-9 -104 -1 -147 35 -184 78 -80 250 -73 312 12 17 23 22
47 24 133 l4 104 -50 0 c-27 0 -110 3 -184 6 l-135 7 -6 -78z m242 18 l92 -6
-6 -56 c-11 -96 -14 -106 -47 -125 -37 -22 -116 -25 -171 -7 -49 17 -67 52
-67 136 l0 65 53 0 c30 0 95 -3 146 -7z"/>
<path d="M842 2398 c3 -21 14 -25 112 -43 l109 -20 -94 -51 c-78 -43 -95 -56
-97 -78 -2 -14 -1 -26 2 -26 3 0 58 31 123 69 110 64 137 91 116 112 -6 6
-247 59 -270 59 -2 0 -3 -10 -1 -22z"/>
<path d="M3718 2285 c-37 -21 -58 -64 -58 -120 0 -36 6 -51 27 -72 l26 -27 9
23 c6 17 4 29 -7 41 -32 35 -14 102 32 117 60 20 63 12 37 -90 -13 -51 -24
-95 -24 -99 0 -4 16 -10 35 -14 71 -13 134 36 142 110 6 53 -20 105 -64 125
-45 21 -124 24 -155 6z m164 -72 c41 -37 9 -123 -47 -123 -30 0 -30 4 -7 80
18 64 25 69 54 43z"/>
<path d="M1069 2178 c5 -13 17 -25 27 -27 56 -10 74 -88 31 -129 -13 -12 -26
-22 -29 -22 -5 0 -42 89 -72 173 -6 17 -8 17 -47 -5 -66 -37 -85 -96 -54 -162
50 -106 238 -76 268 42 15 62 -45 152 -102 152 -27 0 -30 -2 -22 -22z m-39
-122 c25 -75 25 -76 -5 -76 -35 0 -75 42 -75 78 0 31 37 79 51 65 5 -5 18 -35
29 -67z"/>
<path d="M3629 2045 c-33 -18 -72 -105 -63 -140 7 -30 49 -65 76 -65 11 0 47
26 81 59 65 61 87 67 87 22 0 -35 -24 -69 -53 -73 -30 -4 -38 -48 -7 -48 76 0
133 127 80 180 -35 35 -69 26 -130 -35 -39 -39 -61 -54 -73 -49 -47 18 -15
107 40 112 29 3 50 31 35 46 -10 10 -46 6 -73 -9z"/>
<path d="M1106 1910 c-93 -37 -156 -123 -142 -193 6 -30 95 -187 106 -187 3 0
37 20 75 45 39 24 107 67 153 95 45 28 82 57 82 63 -1 20 -93 148 -121 169
-38 28 -95 32 -153 8z m123 -45 c33 -17 98 -112 85 -124 -5 -5 -59 -40 -121
-79 l-112 -70 -31 48 c-45 70 -49 111 -16 155 29 38 107 84 144 85 13 0 36 -7
51 -15z"/>
<path d="M3507 1842 c-15 -16 -14 -19 16 -38 205 -134 202 -132 211 -108 4 10
3 20 -1 23 -5 3 -49 33 -98 65 -50 33 -95 63 -101 68 -6 5 -18 1 -27 -10z"/>
<path d="M3334 1786 c-35 -35 -44 -50 -44 -79 0 -19 3 -43 6 -52 4 -9 59 -61
122 -116 91 -78 118 -97 129 -88 10 9 10 15 2 25 -9 11 -8 14 4 14 26 0 85 58
92 90 13 59 -48 138 -124 161 -54 16 -107 -10 -130 -63 -15 -36 -18 -38 -36
-25 -25 19 -26 79 0 107 11 12 31 20 50 20 43 0 65 24 36 39 -36 20 -63 12
-107 -33z m178 -85 c13 -5 38 -23 56 -40 24 -23 32 -38 32 -65 0 -46 -22 -66
-72 -66 -34 0 -46 6 -74 36 -46 49 -49 85 -8 122 28 25 33 26 66 13z"/>
<path d="M3776 1663 c-5 -11 -1 -22 11 -30 14 -11 20 -11 33 3 13 14 13 17 -4
30 -26 18 -32 18 -40 -3z"/>
<path d="M3281 1576 c-9 -10 1 -28 44 -82 31 -38 58 -79 61 -92 8 -29 -19 -70
-53 -78 -28 -7 -33 -3 -130 112 -37 44 -43 47 -57 34 -14 -13 -9 -23 48 -94
76 -95 103 -112 152 -96 39 13 64 44 64 78 0 21 2 23 16 12 12 -11 18 -11 30
1 12 13 4 27 -67 117 -44 56 -84 102 -89 102 -4 0 -13 -6 -19 -14z"/>
<path d="M1452 1559 c-51 -26 -94 -92 -94 -145 0 -42 40 -90 85 -102 l29 -8
-36 -43 c-40 -48 -42 -54 -22 -70 12 -10 22 -3 53 36 21 27 44 55 50 63 99
117 143 172 143 179 0 16 -24 30 -35 21 -9 -8 -14 -2 -18 19 -12 60 -88 84
-155 50z m110 -46 c30 -27 23 -77 -18 -123 -30 -34 -43 -40 -75 -40 -75 0 -88
70 -28 143 25 30 37 37 66 37 20 0 45 -7 55 -17z"/>
<path d="M1683 1415 c-36 -15 -41 -26 -19 -44 12 -10 20 -9 39 4 30 20 71 11
92 -18 16 -23 20 -83 6 -91 -5 -3 -35 8 -67 26 -33 17 -70 37 -84 45 -30 16
-44 2 -54 -52 -15 -78 42 -141 126 -139 41 0 54 6 82 33 69 67 71 178 3 219
-46 28 -87 34 -124 17z m44 -162 c57 -33 59 -39 24 -58 -40 -20 -53 -19 -85 6
-19 15 -26 30 -26 55 0 32 2 35 23 28 12 -3 41 -18 64 -31z"/>
<path d="M3003 1395 c-38 -16 -73 -68 -73 -107 0 -24 3 -26 23 -19 14 5 23 18
25 34 4 31 45 67 77 67 22 0 75 -34 75 -49 0 -4 -38 -27 -85 -51 -47 -24 -85
-49 -85 -55 0 -19 31 -55 60 -70 37 -19 74 -19 115 1 70 33 84 126 30 203 -41
60 -95 75 -162 46z m151 -131 c8 -21 -1 -53 -22 -76 -27 -32 -112 -19 -112 17
0 8 100 70 121 74 4 0 10 -6 13 -15z"/>
<path d="M2847 1322 c-19 -4 -17 -18 15 -111 29 -86 21 -131 -23 -131 -21 0
-33 -39 -13 -47 27 -10 62 7 72 34 7 18 11 22 11 11 1 -19 10 -22 34 -12 11 4
7 28 -27 129 -23 68 -43 125 -46 127 -3 3 -13 3 -23 0z"/>
<path d="M1880 1144 c-91 -165 -96 -183 -55 -184 6 0 42 63 81 140 l71 140 6
-157 c5 -109 11 -159 19 -165 34 -22 52 -2 127 135 l76 137 3 -157 c2 -154 6
-172 37 -173 7 0 9 66 7 188 -3 157 -6 189 -20 200 -27 21 -38 14 -65 -40 -31
-60 -84 -157 -114 -206 l-20 -32 -6 161 c-5 162 -9 178 -43 179 -7 0 -53 -75
-104 -166z"/>
<path d="M2558 1253 c-11 -3 -18 -14 -18 -29 0 -19 5 -24 25 -24 21 0 25 5 25
30 0 17 -3 29 -7 29 -5 -1 -16 -3 -25 -6z"/>
</g>
</svg>
