<?xml version="1.0" standalone="no"?>
<!DOCTYPE svg PUBLIC "-//W3C//DTD SVG 20010904//EN"
 "http://www.w3.org/TR/2001/REC-SVG-20010904/DTD/svg10.dtd">
<svg version="1.0" xmlns="http://www.w3.org/2000/svg"
 width="300.000000pt" height="300.000000pt" viewBox="0 0 300.000000 300.000000"
 preserveAspectRatio="xMidYMid meet">
<metadata>
Created by potrace 1.10, written by Peter Selinger 2001-2011
</metadata>
<g transform="translate(0.000000,300.000000) scale(0.100000,-0.100000)"
fill="#000000" stroke="none">
<path d="M1261 2383 c-14 -27 -15 -73 -1 -73 6 0 8 11 4 25 -3 14 -2 25 3 25
15 0 33 -47 33 -86 l0 -35 -29 22 c-16 12 -32 35 -35 52 -12 58 -46 78 -46 26
0 -21 10 -43 30 -66 17 -18 30 -30 30 -26 0 3 14 -6 30 -22 l30 -29 0 81 c0
64 -4 86 -19 104 l-18 23 -12 -21z"/>
<path d="M1445 2320 l0 -70 36 0 c50 0 67 22 44 56 -13 21 -14 28 -5 34 18 11
5 40 -17 40 -10 0 -27 3 -38 6 -19 5 -20 0 -20 -66z m58 -11 c14 -22 2 -49
-22 -49 -16 0 -19 6 -18 35 2 38 21 44 40 14z"/>
<path d="M1344 2363 c2 -10 8 -42 11 -71 7 -52 8 -53 38 -50 17 2 32 8 34 14
2 7 -6 10 -22 7 -19 -4 -25 -1 -25 13 -1 11 -3 36 -6 56 -5 34 -4 37 23 41 20
3 16 4 -15 6 -37 1 -43 -2 -38 -16z"/>
<path d="M1616 2313 c-10 -32 -20 -64 -23 -70 -3 -9 7 -13 36 -13 47 0 71 26
71 77 0 26 -6 36 -30 48 -16 8 -31 15 -33 15 -2 0 -12 -26 -21 -57z m64 -11
c0 -28 -25 -62 -47 -62 -17 0 -16 6 3 64 13 38 19 45 30 35 8 -6 14 -23 14
-37z"/>
<path d="M1101 2324 c-31 -26 -40 -57 -21 -69 17 -10 33 5 20 20 -11 13 -4 45
10 45 4 0 10 -13 13 -29 4 -18 23 -43 54 -67 26 -22 50 -42 51 -46 8 -18 19
-6 19 22 0 18 -4 26 -8 19 -8 -14 -82 40 -99 71 -14 26 -1 53 21 47 11 -3 19
-1 19 4 0 19 -50 8 -79 -17z"/>
<path d="M1720 2273 c-14 -31 -26 -60 -28 -63 -5 -12 56 -32 70 -24 9 6 6 10
-12 14 -30 7 -36 28 -16 55 11 16 17 17 29 7 9 -8 18 -9 21 -3 4 5 -3 12 -14
16 -11 3 -20 10 -20 15 0 15 21 23 33 11 13 -13 27 -14 27 -2 0 7 -54 33 -64
31 -1 0 -12 -26 -26 -57z"/>
<path d="M1811 2231 c-24 -66 -26 -81 -10 -81 16 0 108 87 101 95 -3 3 -23
-11 -44 -32 -42 -41 -48 -33 -19 27 14 30 16 40 6 44 -8 3 -20 -16 -34 -53z"/>
<path d="M875 2074 c-9 -14 -13 -29 -8 -33 5 -3 30 -21 55 -38 50 -35 58 -38
58 -24 0 6 -13 18 -30 28 -16 9 -30 21 -30 25 0 12 38 10 62 -3 14 -7 23 -8
31 0 7 7 1 12 -19 16 -16 4 -33 8 -39 9 -5 2 -10 11 -10 22 0 32 -48 31 -70
-2z m55 -8 c0 -8 -6 -16 -12 -19 -20 -7 -37 3 -31 19 7 18 43 18 43 0z"/>
<path d="M826 1992 c-10 -19 -16 -35 -14 -36 10 -8 122 -66 123 -63 0 1 7 14
15 30 8 16 10 30 4 35 -5 4 -8 6 -7 3 1 -2 -2 -12 -8 -22 -8 -16 -13 -17 -37
-7 -37 16 -36 16 -22 33 7 9 10 18 6 22 -3 4 -12 -2 -20 -12 -7 -10 -18 -15
-25 -11 -9 6 -9 11 -1 22 7 7 10 19 8 26 -3 7 -12 -1 -22 -20z"/>
<path d="M1930 1969 c0 -6 14 -24 30 -41 20 -19 30 -40 30 -59 0 -33 38 -79
66 -79 9 0 31 16 50 35 22 24 42 35 61 35 27 0 29 2 25 35 -4 37 -34 67 -58
58 -8 -3 -14 -11 -14 -19 0 -8 -6 -11 -15 -8 -10 4 -15 0 -15 -11 0 -14 -3
-13 -19 6 -18 22 -21 23 -57 10 -34 -12 -39 -12 -51 5 -9 12 -10 20 -3 22 5 2
8 8 4 13 -7 13 -34 11 -34 -2z m248 -63 c4 -19 -13 -36 -35 -36 -14 0 -18 42
-6 54 12 12 38 1 41 -18z m-110 1 c9 -11 10 -22 3 -56 -1 -2 -8 2 -16 9 -12
10 -15 10 -15 -3 0 -9 5 -19 10 -22 16 -10 40 15 40 41 0 13 4 24 9 24 33 0
11 -67 -25 -76 -37 -9 -58 0 -68 29 -8 22 -7 30 4 37 8 6 11 10 5 10 -13 0 17
20 31 20 6 0 16 -6 22 -13z"/>
<path d="M790 1912 c0 -5 12 -13 26 -16 l27 -7 -33 -17 c-39 -20 -51 -42 -22
-42 11 0 39 -7 63 -15 23 -9 46 -12 51 -7 4 4 -15 14 -42 21 -65 17 -60 36 9
37 28 1 54 3 56 6 3 3 -20 13 -52 22 -32 10 -64 20 -70 23 -7 2 -13 0 -13 -5z"/>
<path d="M760 1791 c0 -5 -3 -16 -6 -24 -10 -28 32 -57 81 -57 49 0 69 19 59
57 -4 16 -16 22 -45 25 -27 2 -39 0 -39 -9 0 -8 13 -13 36 -13 28 0 35 -3 32
-17 -5 -25 -79 -30 -98 -8 -11 13 -11 21 -2 36 10 16 9 19 -3 19 -8 0 -15 -4
-15 -9z"/>
<path d="M2080 1787 c-29 -14 -37 -41 -20 -62 17 -20 94 -19 114 1 51 50 -22
97 -94 61z m94 -16 c8 -13 -27 -40 -62 -47 -39 -8 -57 20 -27 42 21 16 81 19
89 5z"/>
<path d="M750 1677 c0 -8 21 -12 70 -12 93 -1 93 19 0 22 -50 2 -70 -1 -70
-10z"/>
<path d="M2060 1675 c0 -8 15 -12 38 -11 33 1 37 -2 35 -21 -2 -13 2 -23 7
-23 6 0 10 9 10 20 0 11 7 20 15 20 9 0 15 -9 15 -25 0 -14 5 -25 10 -25 6 0
10 17 10 38 l0 37 -70 1 c-48 0 -70 -3 -70 -11z"/>
<path d="M811 1614 c-23 -38 -48 -41 -44 -5 2 11 -2 21 -7 21 -15 0 -12 -46 4
-59 19 -16 44 -4 62 30 8 16 21 29 28 29 20 0 28 -28 13 -42 -11 -9 -10 -15 5
-30 21 -21 24 -48 6 -48 -7 0 -23 -3 -35 -6 -17 -5 -22 -1 -26 18 -4 21 -4 20
-6 -4 -1 -32 -31 -40 -31 -9 0 11 -5 23 -11 27 -8 4 -9 -4 -4 -27 10 -46 14
-50 33 -40 9 5 39 12 65 16 48 7 48 8 41 39 -3 17 -9 36 -12 41 -4 6 -5 20 -3
33 7 58 -47 69 -78 16z"/>
<path d="M2050 1576 c0 -9 20 -17 58 -23 45 -6 57 -12 56 -26 -2 -21 12 -22
20 -1 9 25 7 64 -4 64 -5 0 -9 -6 -7 -12 2 -14 -60 -12 -100 3 -17 6 -23 5
-23 -5z"/>
<path d="M865 1463 c-54 -14 -93 -70 -81 -116 9 -38 45 -77 71 -77 29 0 42 17
25 33 -10 9 -14 9 -17 0 -13 -36 -63 7 -63 53 0 37 42 81 86 90 64 13 116 -72
59 -98 -18 -8 -29 -8 -36 -1 -7 7 0 14 21 23 21 9 27 16 19 21 -7 4 -23 2 -36
-4 -30 -13 -44 0 -19 19 11 7 17 17 13 20 -11 11 -37 -17 -37 -41 0 -14 -9
-26 -26 -33 -14 -7 -22 -17 -19 -22 4 -6 17 -4 35 5 25 13 29 13 40 0 29 -35
84 -5 82 45 -1 55 -61 98 -117 83z"/>
<path d="M2016 1444 c-10 -37 1 -62 34 -79 40 -21 66 -19 84 7 18 26 21 48 6
48 -6 0 -33 11 -62 25 -28 14 -53 25 -54 25 -1 0 -5 -12 -8 -26z m68 -24 c52
-22 58 -37 21 -46 -32 -8 -75 19 -75 46 0 24 -2 24 54 0z"/>
<path d="M1966 1349 c-12 -20 -15 -34 -8 -41 6 -6 12 -1 16 16 8 31 16 32 47
7 19 -16 22 -22 12 -32 -7 -7 -13 -18 -13 -23 1 -6 9 -1 19 11 12 14 22 18 31
13 12 -7 11 -12 -3 -28 -9 -10 -14 -22 -10 -25 3 -4 15 7 25 24 11 17 18 33
16 34 -5 5 -110 75 -112 75 -1 0 -10 -14 -20 -31z"/>
<path d="M1915 1280 c-5 -8 20 -50 72 -119 2 -2 6 -2 9 2 4 3 -8 24 -25 45
-17 22 -31 43 -31 47 0 4 21 -5 47 -19 25 -15 50 -23 55 -18 4 4 -21 22 -57
40 -38 18 -67 27 -70 22z"/>
<path d="M1045 1217 c-6 -49 -10 -56 -41 -71 -19 -9 -41 -16 -49 -16 -22 0
-18 -17 5 -23 11 -3 20 -2 20 2 0 10 51 33 57 27 11 -11 -8 -56 -23 -56 -24 0
-5 -20 32 -36 25 -11 40 -12 54 -4 23 13 27 40 5 40 -8 0 -15 -7 -15 -15 0
-17 -37 -20 -60 -5 -12 8 -11 10 8 10 19 0 22 5 22 38 0 34 4 40 35 55 48 23
82 22 90 -2 3 -11 -7 -52 -23 -95 -20 -51 -26 -76 -18 -79 7 -3 19 19 31 54
19 61 22 64 43 51 9 -7 8 -13 -8 -27 -22 -20 -27 -49 -7 -42 6 2 11 10 9 17
-2 7 9 25 23 40 17 18 23 30 16 34 -6 4 -11 2 -11 -3 0 -6 -7 -11 -15 -11 -8
0 -15 9 -15 20 0 25 47 28 57 4 6 -17 -42 -128 -65 -146 -17 -15 2 -28 40 -28
39 0 58 10 58 31 0 25 -26 24 -33 -1 -4 -14 -13 -20 -34 -20 -24 1 -26 2 -12
13 8 7 29 38 47 71 37 69 32 90 -28 106 -22 6 -40 15 -40 20 0 6 -17 18 -37
27 -37 18 -38 18 -60 -4 -34 -35 -45 -29 -38 21 4 26 3 46 -3 50 -7 4 -13 -15
-17 -47z"/>
<path d="M1642 1122 l-24 -18 34 -80 c18 -45 38 -79 44 -77 7 2 2 21 -12 51
-29 58 -29 68 -3 75 12 3 19 12 17 22 -1 9 -7 15 -13 13 -5 -1 -9 -8 -7 -15 2
-7 -4 -13 -13 -13 -20 0 -20 39 1 47 9 3 24 2 32 -4 17 -10 41 -90 42 -135 0
-35 19 -36 54 -3 28 26 36 75 12 75 -21 0 -31 -21 -16 -30 11 -7 10 -13 -4
-34 -18 -28 -43 -37 -28 -10 6 10 4 30 -4 54 -7 20 -15 50 -17 66 -3 25 -8 29
-38 32 -21 1 -43 -5 -57 -16z"/>
<path d="M1555 1110 c-3 -5 -15 -10 -25 -10 -17 0 -17 -2 -4 -30 9 -16 16 -59
17 -95 2 -71 7 -76 57 -50 33 17 43 65 14 65 -11 0 -14 -5 -10 -16 4 -10 -1
-25 -10 -35 -22 -24 -37 -24 -29 0 3 11 1 47 -4 82 -11 66 -2 95 26 85 7 -3
13 -1 13 4 0 13 -37 13 -45 0z"/>
<path d="M1418 1016 c-20 -48 -32 -86 -26 -84 13 5 70 146 65 161 -1 5 -19
-29 -39 -77z"/>
</g>
</svg>
